<svg version="1.1" class="ab-logo" xmlns="http://www.w3.org/2000/svg" xmlns:xlink="http://www.w3.org/1999/xlink" x="0px" y="0px" width="134px" height="67px" viewBox="0 0 134 67" enable-background="new 0 0 134 67" xml:space="preserve">
    <path class="shadow" fill="#3C3C3C" d="M41.7,51.2H21.8l-5.6,15H4.6L0,62.5h13.1l5.6-15h21.7L41.7,51.2z M29.4,18.5l2,5.4l-3.6,9.7h-4L29.4,18.5z M46.6,62.5h13.9L37.3,0l5.7,4.8l22.8,61.3H51.2L46.6,62.5z"/>
    <path class="shadow" fill="#3C3C3C" d="M109,66.2H83.9l-4.6-3.6h24.9c14.5,0,25.2-5.5,25.2-19.1c0-2.3-0.4-5.3-2-7.7c3.7,3.3,6,6.3,6,12.6C133.5,56.9,126.3,66.2,109,66.2z M91.8,12.9h12c4.6,0,7.1,1.4,8.1,3.8c-0.7-0.1-1.5-0.2-2.3-0.2H96.4v7.1h-4.6V12.9z M91.8,37.9h11.5c6.6,0,10.3,1.3,11.6,4.1c-1.7-0.3-3.6-0.5-5.8-0.5H96.4v6.9h-4.6V37.9z M123.4,6.8c3.9,3,7.3,8.7,7.3,14.4c0,4.8-1.9,8.9-4.8,12.1c-1.3-1.5-2.5-2.4-4.5-3.5c2.8-3.1,5.2-6.4,5.2-12.2C126.6,13.1,125.3,9.2,123.4,6.8z"/>
    <path class="letter" fill="#FBEA1F" d="M41,46.3H17.8l-5.6,15H0L22.8,0h13.4l22.8,61.3H46.6L41,46.3z M22,34.8h14.7l-7.3-19.7L22,34.8z"/>
    <path class="letter" fill="#FBEA1F" d="M104.3,61.3H79.3V0h25.3c10.6,0,20.8,4.7,20.8,17.7c0,4.9-2.5,9.6-6.2,12.5c6.3,2.2,9.1,7.6,9.1,13.3C128.3,56.5,117.6,61.3,104.3,61.3z M103.9,11.7H90.6v13.1h13.2c6.2,0,9.6-2.3,9.6-6.5C113.5,14.3,110.2,11.7,103.9,11.7zM103.3,36.7H90.6v12.9h13c8.8,0,12.7-1.5,12.7-6.6C116.4,38.7,111.7,36.7,103.3,36.7z"/>
    <path class="lined-letter" fill="#E7511D" d="M4.5,58.8L4,58.4l0.5-0.8l3,0.4h3.1l0.3,0.5l-0.3,0.5H4.5z M5.4,56.7l-0.5-0.8l0.5-0.8l3,0.4h3.2l0.3,0.5l-0.3,0.5H8.4L5.4,56.7z M6.3,54.3l-0.5-0.8l0.5-0.8l3,0.4h3.2l0.3,0.5l-0.3,0.5H9.3L6.3,54.3z M7.2,51.7l-0.5-0.8l0.5-0.8l3,0.4h3.3l0.3,0.5l-0.3,0.5h-3.3L7.2,51.7z M8.1,49.3l-0.5-0.8l0.5-0.8l3,0.4h3.3l0.3,0.5l-0.3,0.5h-3.3L8.1,49.3z M9,46.8L8.6,46L9,45.2l3,0.4h3.3l0.3,0.5l-0.3,0.5H12L9,46.8z M9.9,44.3l-0.5-0.8l0.5-0.8l3,0.4h36.2l0.3,0.5l-0.3,0.5H12.9L9.9,44.3z M10.8,41.8L10.4,41l0.5-0.9l3,0.5h34.4l0.3,0.5l-0.3,0.5H13.8L10.8,41.8z M11.7,39.4l-0.5-0.8l0.5-0.8l3,0.4h32.6l0.3,0.5L47.3,39H14.7L11.7,39.4z M12.7,36.7L12.2,36l0.5-0.8l3,0.4H19l0.3,0.5L19,36.4h-3.4L12.7,36.7z M13.6,34.3l-0.5-0.8l0.5-0.8l3,0.4h3.4l0.3,0.5L19.9,34h-3.4L13.6,34.3z M14.5,31.9L14,31.1l0.5-0.8l3,0.4h3.4l0.3,0.5l-0.3,0.5h-3.4L14.5,31.9z M15.5,29.3L15,28.5l0.5-0.8l3,0.4h3.3l0.3,0.5L21.8,29h-3.3L15.5,29.3z M16.4,26.9l-0.5-0.8l0.5-0.8l3,0.4h3.3l0.3,0.5l-0.3,0.5h-3.3L16.4,26.9z M17.2,24.4l-0.5-0.8l0.5-0.8l3,0.4h3.5l0.3,0.5l-0.3,0.5h-3.5L17.2,24.4z M18.2,21.9l-0.5-0.8l0.5-0.8l3,0.4h3.4l0.3,0.5l-0.3,0.5h-3.4L18.2,21.9z M19.1,19.4l-0.5-0.8l0.5-0.8l3,0.4h3.5l0.3,0.5l-0.3,0.5h-3.5L19.1,19.4z M19.9,17l-0.5-0.8l0.5-0.8l3,0.4h3.5l0.3,0.5l-0.3,0.5h-3.5L19.9,17z M20.9,14.4l-0.5-0.8l0.5-0.8l3,0.4h3.5l0.3,0.5l-0.3,0.5h-3.5L20.9,14.4z M21.8,12l-0.5-0.8l0.5-0.9l3,0.5h3.5l0.3,0.5l-0.3,0.5h-3.5L21.8,12z M22.8,9.5l-0.5-0.8l0.5-0.8l3,0.4h10.6l0.3,0.5l-0.3,0.5H25.8L22.8,9.5z M23.7,7l-0.5-0.8l0.5-0.8l3,0.4h8.7l0.3,0.5l-0.3,0.5h-8.7L23.7,7z M24.5,4.6L24,3.8l0.5-0.5h10.1l0.3,0.5l-0.3,0.5h-7.1L24.5,4.6z M37.2,10.7l0.3,0.5l-0.3,0.5h-6.6l-0.3-0.5l0.3-0.5H37.2z M38.1,13.1l0.3,0.5l-0.3,0.5h-6.5l-0.3-0.5l0.3-0.5H38.1z M39,15.7l0.3,0.5L39,16.6h-6.5l-0.3-0.5l0.3-0.5H39z M40,18.1l0.3,0.5L40,19.1h-6.5l-0.3-0.5l0.3-0.5H40z M40.9,20.6l0.3,0.5l-0.3,0.5h-6.5l-0.3-0.5l0.3-0.5H40.9z M41.8,23.2l0.3,0.5l-0.3,0.5h-6.4l-0.3-0.5l0.3-0.5H41.8z M42.7,25.6l0.3,0.5l-0.3,0.5h-6.4L36,26.1l0.3-0.5H42.7z M43.7,28.1l0.3,0.5L43.7,29h-6.5L37,28.5l0.3-0.5H43.7z M44.6,30.6l0.3,0.5l-0.3,0.5h-6.4L38,31.1l0.3-0.5H44.6z M45.5,33.1l0.3,0.5L45.5,34H39l-0.3-0.5l0.3-0.5H45.5z M46.4,35.5l0.3,0.5l-0.3,0.5H40L39.8,36l0.3-0.5H46.4z M50.1,45.5l0.3,0.5l-0.3,0.5h-6.3L43.5,46l0.3-0.5H50.1z M51,48l0.3,0.5L51,48.9h-6.3l-0.3-0.5l0.3-0.5H51z M51.9,50.5l0.3,0.5l-0.3,0.5h-6.3l-0.3-0.5l0.3-0.5H51.9z M52.8,53l0.3,0.5l-0.3,0.5h-6.3l-0.3-0.5l0.3-0.5H52.8z M53.7,55.5l0.3,0.5l-0.3,0.5h-6.3l-0.3-0.5l0.3-0.5H53.7z M54.6,57.9l0.3,0.5l-0.3,0.5h-6.3l-0.3-0.5l0.3-0.5H54.6z"/>
    <path class="lined-letter" fill="#E7511D" d="M111.7,2.9l0.3,0.5l-0.3,0.5H85.3l-3,0.4l-0.5-0.8l0.5-0.5H111.7z M85.3,5.4h31.9l0.3,0.5l-0.3,0.5H85.3l-3,0.4l-0.5-0.8L82.3,5L85.3,5.4z M85.3,7.8h34l0.3,0.5l-0.3,0.5h-34l-3,0.4l-0.5-0.8l0.5-0.8L85.3,7.8z M85.3,10.4h2.5l0.3,0.5l-0.3,0.5h-2.5l-3,0.4l-0.5-0.8l0.5-0.8L85.3,10.4z M85.3,12.8h2.5l0.3,0.5l-0.3,0.5h-2.5l-3,0.4l-0.5-0.8l0.5-0.8L85.3,12.8z M85.3,15.3h2.5l0.3,0.5l-0.3,0.5h-2.5l-3,0.4l-0.5-0.8l0.5-0.8L85.3,15.3z M85.3,17.8h2.5l0.3,0.5l-0.3,0.5h-2.5l-3,0.4l-0.5-0.8l0.5-0.8L85.3,17.8z M85.3,20.3h2.5l0.3,0.5l-0.3,0.5h-2.5l-3,0.5l-0.5-0.9l0.5-0.8L85.3,20.3z M85.3,22.8h2.5l0.3,0.5l-0.3,0.5h-2.5l-3,0.4l-0.5-0.8l0.5-0.8L85.3,22.8z M85.3,25.3h2.5l0.3,0.5l-0.3,0.5h-2.5l-3,0.4l-0.5-0.8l0.5-0.7L85.3,25.3z M85.3,27.8h32l0.3,0.5l-0.3,0.5h-32l-3,0.4l-0.5-0.8l0.5-0.8L85.3,27.8z M85.3,30.2h30.1l0.3,0.5l-0.3,0.5H85.3l-3,0.4l-0.5-0.8l0.5-0.8L85.3,30.2z M85.3,32.8h34.7l0.3,0.5l-0.3,0.5H85.3l-3,0.4l-0.5-0.8l0.5-0.8L85.3,32.8z M85.3,35.2h2.5l0.3,0.5l-0.3,0.5h-2.5l-3,0.4l-0.5-0.8l0.5-0.8L85.3,35.2z M85.3,37.7h2.5l0.3,0.5l-0.3,0.5h-2.5l-3,0.4l-0.5-0.8l0.5-0.8L85.3,37.7z M85.3,40.2h2.5l0.3,0.5l-0.3,0.5h-2.5l-3,0.4l-0.5-0.8l0.5-0.8L85.3,40.2z M85.3,42.7h2.5l0.3,0.5l-0.3,0.5h-2.5l-3,0.4l-0.5-0.8l0.5-0.8L85.3,42.7z M85.3,45.1h2.5l0.3,0.5l-0.3,0.5h-2.5l-3,0.4l-0.5-0.8l0.5-0.8L85.3,45.1z M85.3,47.7h2.5l0.3,0.5l-0.3,0.5h-2.5l-3,0.4l-0.5-0.8l0.5-0.8L85.3,47.7z M85.3,50.2h2.5l0.3,0.5l-0.3,0.5h-2.5l-3,0.5l-0.5-0.9l0.5-0.8L85.3,50.2z M85.3,52.6h37l0.3,0.5l-0.3,0.5h-37l-3,0.4l-0.5-0.8l0.5-0.8L85.3,52.6z M85.3,55.1h34.1l0.3,0.5l-0.3,0.5H85.3l-3,0.4l-0.5-0.8l0.5-0.8L85.3,55.1z M85.3,57.5h27.9l0.3,0.5l-0.3,0.5H82.3L81.8,58l0.5-0.8L85.3,57.5z M111.9,11.3l-0.7-0.5l0.3-0.5h9.6l0.3,0.5l-0.3,0.5H111.9z M111.8,26.2l-0.3-0.5l0.7-0.5h7.5l0.3,0.5l-0.3,0.5H111.8z M113.6,36.1l-0.7-0.5l0.3-0.5h10l0.3,0.5l-0.3,0.5H113.6z M114.2,51.1l-0.3-0.5l0.7-0.5h9.2l0.3,0.5l-0.3,0.5H114.2z M114.7,23.7l-0.3-0.5l0.3-0.5h6.4l0.3,0.5l-0.3,0.5H114.7z M114.8,13.7l-0.3-0.5l0.3-0.5h7.1l0.3,0.5l-0.3,0.5H114.8z M116,18.8l-0.3-0.5l0.3-0.5h6.6l0.3,0.5l-0.3,0.5H116z M116,21.3l-0.3-0.5l0.3-0.5l6.1-0.1l0.3,0.5l-0.3,0.5L116,21.3z M116.2,16.2l-0.3-0.5l0.3-0.5h6.2l0.3,0.5l-0.3,0.5H116.2z M117.6,38.6l-0.3-0.5l0.3-0.5h6.9l0.3,0.5l-0.3,0.5H117.6z M117.7,48.6l-0.3-0.5l0.3-0.5h7.1l0.3,0.5l-0.3,0.5H117.7z M118.8,41.1l-0.3-0.5l0.3-0.5h6.1l0.3,0.5l-0.3,0.5H118.8z M119,46.1l-0.3-0.5l0.3-0.5h6.3l0.3,0.5l-0.3,0.5H119z M119.3,43.6l-0.3-0.5l0.3-0.5h6.1l0.3,0.5l-0.3,0.5H119.3z"/>
</svg>